<svg width="358" height="32" viewBox="0 0 358 32" fill="none" xmlns="http://www.w3.org/2000/svg">
<path d="M2.50485 9.8325C2.73861 9.525 3.04646 9.10875 3.29299 8.81125C4.03131 7.99125 4.12711 7.88375 4.799 7.2775C4.99827 7.1175 5.23459 6.925 5.46579 6.74375C3.7605 8.15625 3.54335 9.72 5.10813 10.6862C5.10557 10.6862 5.10557 10.6863 5.10557 10.6888C7.2937 11.9788 12.0889 11.7 15.8725 10.0475C19.5373 8.4475 20.89 6.15875 19.0812 4.79875C17.4935 4.5075 15.6004 4.47375 13.5975 4.73625L13.3893 4.4L13.5617 3.8425C14.7395 3.73875 15.8584 3.76375 16.8241 3.925C17.0579 3.96375 17.3657 4.03 17.5957 4.0775C18.0402 4.18375 18.2816 4.2475 18.5716 4.33875C18.8679 4.425 19.1208 4.51125 19.5615 4.67125C19.9933 4.8375 20.1798 4.9125 20.5259 5.08125C20.9136 5.25433 21.2903 5.4501 21.6539 5.6675C24.5356 7.44125 22.7435 10.6775 17.6583 12.895C12.5871 15.105 6.12491 15.4525 3.22912 13.7C3.22784 13.6975 3.22401 13.695 3.21635 13.6925H3.22145C1.64007 12.7125 1.47402 11.29 2.50485 9.8325ZM15.6988 22.2325L15.6579 20.24L14.2106 18.665C9.42946 19.725 4.73003 19.4975 2.11653 17.9913C2.10759 17.9812 2.08588 17.9713 2.07693 17.9613C0.597743 17.07 0.232416 15.92 0.343547 14.67C-0.00261987 16.4987 -0.030722 17.1587 0.0190954 18.7237C0.080409 19.7037 0.659056 20.6075 1.82274 21.32L1.83168 21.33C4.61762 23.025 10.422 23.3925 15.6988 22.2325ZM21.7343 24.5138C14.986 27.1625 6.54005 27.3188 2.87146 24.8675C3.26764 25.815 3.80672 26.6989 4.47072 27.49C7.83786 29.74 15.5902 29.5963 21.7816 27.165C25.4055 25.7437 27.692 23.8525 28.2923 22.08L28.461 21.5462C28.8608 20.1938 28.9361 19.0675 29 18.065C28.9272 20.2413 26.3073 22.7162 21.7343 24.5138ZM6.83768 29.615C7.04972 29.8125 7.71651 30.6138 11.0951 31.4988C12.0085 31.6963 14.3077 32.33 18.555 31.4088L18.5805 31.03L18.2446 30.515C14.3039 31.4275 9.92635 31.1225 6.83768 29.615ZM16.5891 13.8538L20.1772 16.515C20.1772 16.515 20.9449 17.0562 20.2207 17.4362C19.4989 17.8125 17.6455 18.7337 17.6455 18.7337L15.815 18.065L14.8966 18.465L16.5163 19.8412L16.5291 21.9825L17.4807 21.5688L18.1117 19.76C18.1117 19.76 20.0495 19.03 20.8185 18.755C21.5913 18.4862 21.4878 19.4062 21.4878 19.4062L21.1072 23.795L22.3717 23.245L24.4539 17.3237C24.4539 17.3237 25.5575 16.7987 26.3341 16.3375C27.1095 15.8763 27.3752 15.1112 27.3752 15.1112C27.3752 15.1112 26.619 14.7925 25.7478 15.0487C24.8767 15.3025 23.7411 15.755 23.7411 15.755L17.8499 13.3062L16.5891 13.8538ZM8.99771 5.43375L11.4336 7.3325L12.0992 7.235L10.7732 5.53125C10.7732 5.53125 10.4846 5.17875 10.8729 5.095C11.2638 5.01 12.2524 4.8125 12.2524 4.8125L12.9959 5.39375L13.4966 5.32125L12.9294 4.43875L13.2283 3.46L12.7442 3.52875L12.1707 4.27375C12.1707 4.27375 11.1641 4.36625 10.7681 4.39875C10.3696 4.42875 10.5408 4.01 10.5408 4.01L11.3046 2L10.6353 2.09625L8.87253 4.6075C8.87253 4.6075 8.28494 4.7125 7.85958 4.83125C7.43293 4.94875 7.20812 5.27125 7.20812 5.27125C7.20812 5.27125 7.52107 5.51875 7.96176 5.51C8.40629 5.50125 8.99771 5.43375 8.99771 5.43375ZM21.0369 29.8312L19.4606 29.025L19.0979 29.1488L20.0316 29.9662C20.0316 29.9662 20.2309 30.1325 20.0214 30.2212C19.8119 30.3088 19.278 30.5238 19.278 30.5238L18.8373 30.3313L18.5754 30.4237L18.942 30.8062L18.9062 31.365L19.1796 31.2725L19.384 30.8188C19.384 30.8188 19.9384 30.6575 20.1593 30.6C20.379 30.5412 20.3292 30.7938 20.3292 30.7938L20.121 32L20.4851 31.8762L21.1991 30.2812C21.1991 30.2812 21.5146 30.16 21.7407 30.0487C21.9668 29.9375 22.0562 29.7325 22.0562 29.7325C22.0562 29.7325 21.8557 29.625 21.6079 29.6787C21.3588 29.73 21.0369 29.8312 21.0369 29.8312Z" fill="white"/>
<path d="M348.24 14.6667H324.76C323.995 14.6667 323.375 15.2338 323.375 15.9333V16.0667C323.375 16.7662 323.995 17.3333 324.76 17.3333H348.24C349.005 17.3333 349.625 16.7662 349.625 16.0667V15.9333C349.625 15.2338 349.005 14.6667 348.24 14.6667Z" fill="white"/>
<path d="M348.24 21.3333H324.76C323.995 21.3333 323.375 21.9004 323.375 22.6V22.7333C323.375 23.4329 323.995 24 324.76 24H348.24C349.005 24 349.625 23.4329 349.625 22.7333V22.6C349.625 21.9004 349.005 21.3333 348.24 21.3333Z" fill="white"/>
<path d="M348.24 8H324.76C323.995 8 323.375 8.56711 323.375 9.26667V9.4C323.375 10.0996 323.995 10.6667 324.76 10.6667H348.24C349.005 10.6667 349.625 10.0996 349.625 9.4V9.26667C349.625 8.56711 349.005 8 348.24 8Z" fill="white"/>
</svg>
